<svg xmlns="http://www.w3.org/2000/svg" width="1190.25" viewBox="0 0 1190.25 1683.75" height="1683.75" version="1.0"><defs><clipPath id="a"><path d="M 455 462.863281 L 976.847656 462.863281 L 976.847656 1106 L 455 1106 Z M 455 462.863281"/></clipPath><clipPath id="b"><path d="M 347 579 L 869 579 L 869 1221.703125 L 347 1221.703125 Z M 347 579"/></clipPath><clipPath id="c"><path d="M 868 699 L 976.847656 699 L 976.847656 1106 L 868 1106 Z M 868 699"/></clipPath></defs><path fill="#3FC4C1" d="M 281.003906 500.167969 C 266.4375 505.71875 260.023438 512.136719 254.472656 526.707031 C 253.214844 530.007812 248.574219 530.007812 247.3125 526.707031 C 241.757812 512.136719 235.351562 505.71875 220.78125 500.167969 C 217.480469 498.90625 217.480469 494.261719 220.78125 493.003906 C 235.351562 487.449219 241.757812 481.035156 247.3125 466.464844 C 248.574219 463.164062 253.214844 463.164062 254.472656 466.464844 C 260.023438 481.035156 266.4375 487.449219 281.003906 493.003906 C 284.300781 494.261719 284.300781 498.90625 281.003906 500.167969 Z M 281.003906 500.167969"/><g clip-path="url(#a)"><path fill="#FFA800" d="M 976.734375 479.0625 L 976.734375 1089.15625 C 976.734375 1098.082031 969.5 1105.351562 960.546875 1105.351562 L 471.761719 1105.351562 C 462.871094 1105.351562 455.566406 1098.082031 455.566406 1089.15625 L 455.566406 479.0625 C 455.566406 470.101562 462.871094 462.867188 471.761719 462.867188 L 960.546875 462.867188 C 969.5 462.867188 976.734375 470.101562 976.734375 479.0625 Z M 976.734375 479.0625"/></g><g clip-path="url(#b)"><path fill="#FFCD00" d="M 868.179688 699.503906 L 868.179688 1205.503906 C 868.179688 1214.425781 860.910156 1221.699219 851.992188 1221.699219 L 363.238281 1221.699219 C 354.285156 1221.699219 347.050781 1214.425781 347.050781 1205.503906 L 347.050781 595.410156 C 347.050781 586.453125 354.285156 579.214844 363.238281 579.214844 L 740.941406 579.214844 Z M 868.179688 699.503906"/></g><path fill="#FFF" d="M 868.179688 699.511719 L 757.171875 699.511719 C 753.796875 699.511719 750.675781 698.496094 748.113281 696.738281 L 747.863281 696.5625 L 745.578125 694.632812 C 742.703125 691.71875 740.945312 687.710938 740.945312 683.320312 L 740.945312 579.222656 Z M 868.179688 699.511719"/><path fill="#FFF" d="M 790.1875 1007.792969 L 414.5 1007.792969 C 409.652344 1007.792969 405.71875 1003.863281 405.71875 999.011719 C 405.71875 994.164062 409.652344 990.230469 414.5 990.230469 L 790.1875 990.230469 C 795.035156 990.230469 798.96875 994.164062 798.96875 999.011719 C 798.96875 1003.863281 795.039062 1007.792969 790.1875 1007.792969 Z M 790.1875 1007.792969"/><path fill="#FFF" d="M 790.1875 1056.574219 L 414.5 1056.574219 C 409.652344 1056.574219 405.71875 1052.636719 405.71875 1047.789062 C 405.71875 1042.9375 409.652344 1039.007812 414.5 1039.007812 L 790.1875 1039.007812 C 795.035156 1039.007812 798.96875 1042.9375 798.96875 1047.789062 C 798.96875 1052.640625 795.039062 1056.574219 790.1875 1056.574219 Z M 790.1875 1056.574219"/><path fill="#FFF" d="M 790.1875 1105.351562 L 414.5 1105.351562 C 409.652344 1105.351562 405.71875 1101.417969 405.71875 1096.566406 C 405.71875 1091.714844 409.652344 1087.785156 414.5 1087.785156 L 790.1875 1087.785156 C 795.035156 1087.785156 798.96875 1091.714844 798.96875 1096.566406 C 798.96875 1101.417969 795.039062 1105.351562 790.1875 1105.351562 Z M 790.1875 1105.351562"/><path fill="#FFA800" d="M 868.179688 699.511719 L 868.179688 815.773438 L 748.113281 696.738281 C 750.675781 698.496094 753.796875 699.511719 757.171875 699.511719 Z M 868.179688 699.511719"/><g clip-path="url(#c)"><path fill="#FF8400" d="M 976.734375 801.710938 L 976.734375 1089.15625 C 976.734375 1098.082031 969.5 1105.351562 960.546875 1105.351562 L 868.179688 1105.351562 L 868.179688 699.511719 Z M 976.734375 801.710938"/></g><path fill="#FFF" d="M 443.898438 894.890625 L 518.84375 906.382812 C 523.257812 907.058594 527.0625 903.257812 526.386719 898.839844 L 514.894531 823.867188 Z M 443.898438 894.890625"/><path fill="#3FC4C1" d="M 304.136719 613.042969 C 284.53125 593.429688 252.746094 593.429688 233.144531 613.042969 L 233.140625 613.042969 C 213.539062 632.652344 213.539062 664.449219 233.140625 684.058594 L 233.144531 684.058594 L 443.898438 894.890625 L 514.894531 823.871094 Z M 304.136719 613.042969"/><path fill="#FFA800" d="M 543.75 896.164062 L 532.269531 821.195312 L 531.390625 815.53125 L 527.316406 811.460938 L 347.050781 631.09375 L 347.050781 655.96875 L 514.882812 823.863281 L 526.367188 898.832031 C 526.996094 902.910156 523.835938 906.457031 519.871094 906.457031 C 519.519531 906.457031 519.167969 906.421875 518.851562 906.390625 L 443.90625 894.898438 L 347.050781 798.007812 L 347.050781 822.84375 L 431.476562 907.300781 L 435.550781 911.375 L 441.238281 912.253906 L 516.179688 923.742188 C 517.410156 923.957031 518.640625 924.023438 519.871094 924.023438 C 526.894531 924.023438 533.601562 920.964844 538.203125 915.589844 C 542.800781 910.25 544.808594 903.152344 543.75 896.164062 Z M 543.75 896.164062"/></svg>